# xmcd
#
# Track frame offsets:
#	150
#	9999
#	23387
#	40307
#	53284
#	70113
#	89136
#	103945
#	116790
#	129467
#	140333
#	157719
#
# Disc length: 2258 seconds
#
# Revision: 1
# Processed by: cddbd v1.5.1PL2 Copyright (c) Steve Scherf et al.
# Submitted via: EasyCDDAExtractor 8.2.3.1
#
DISCID=9008d00c
DTITLE=Jacó e Jacózinho - Novos sucessos de
DYEAR=1968
DGENRE=Sertanejo
TTITLE0=Talvez sim talvez não
TTITLE1=Doce de côco
TTITLE2=João bobo
TTITLE3=Cavalo enxuto
TTITLE4=Rosa de ouro
TTITLE5=Justiceiro
TTITLE6=Chuva de arroz
TTITLE7=Duas moças
TTITLE8=Minha esposa vale ouro
TTITLE9=Casa pequena
TTITLE10=Os filhos da Bahia
TTITLE11=Flor do mato
EXTD=
EXTT0=
EXTT1=
EXTT2=
EXTT3=
EXTT4=
EXTT5=
EXTT6=
EXTT7=
EXTT8=
EXTT9=
EXTT10=
EXTT11=
PLAYORDER=
